<?xml version="1.0" encoding="UTF-8" standalone="no"?>
<svg
   xmlns:dc="http://purl.org/dc/elements/1.1/"
   xmlns:cc="http://creativecommons.org/ns#"
   xmlns:rdf="http://www.w3.org/1999/02/22-rdf-syntax-ns#"
   xmlns:svg="http://www.w3.org/2000/svg"
   xmlns="http://www.w3.org/2000/svg"
   id="svg8"
   version="1.1"
   viewBox="0 0 210 297"
   height="297mm"
   width="210mm">
  <defs
     id="defs2" />
  <metadata
     id="metadata5">
    <rdf:RDF>
      <cc:Work
         rdf:about="">
        <dc:format>image/svg+xml</dc:format>
        <dc:type
           rdf:resource="http://purl.org/dc/dcmitype/StillImage" />
        <dc:title></dc:title>
      </cc:Work>
    </rdf:RDF>
  </metadata>
  <g
     id="layer1">
    <path
       d="m 103.56548,146.56548 c -0.0685,-0.33274 0.4147,-0.25658 0.55303,-0.11395 0.37487,0.38651 0.0752,0.99533 -0.32513,1.22 -0.71617,0.40188 -1.58131,-0.0653 -1.88698,-0.76421 -0.44858,-1.02563 0.20508,-2.17704 1.2033,-2.55395 1.33047,-0.50236 2.77647,0.34415 3.22092,1.64237 0.55928,1.63368 -0.48283,3.37774 -2.08146,3.88789 -1.93615,0.61787 -3.98003,-0.62125 -4.554862,-2.52053 -0.677423,-2.23824 0.759522,-4.58297 2.959612,-5.22184 2.54009,-0.73759 5.18635,0.8977 5.88881,3.3987 0.79818,2.84179 -1.03579,5.79003 -3.83777,6.55578 -3.1434,0.85905 -6.393937,-1.17384 -7.222757,-4.27685 -0.920147,-3.44493 1.311846,-6.99801 4.715927,-7.88973 3.74642,-0.9814 7.60221,1.44982 8.55671,5.15501 1.04277,4.04786 -1.58779,8.2065 -5.59409,9.22367 -4.34928,1.10426 -8.810881,-1.72571 -9.890653,-6.03316 -1.165808,-4.65067 1.863644,-9.41532 6.472253,-10.55763 4.95204,-1.22742 10.01981,2.00156 11.22459,6.91133 1.2891,5.2534 -2.13946,10.62436 -7.35041,11.89157 -5.55474,1.35081 -11.228936,-2.27735 -12.558538,-7.78949 -1.412566,-5.85608 2.415239,-11.83355 8.228568,-13.22551 6.15741,-1.47435 12.43819,2.55312 13.89249,8.66765 1.53616,6.45872 -2.691,13.04285 -9.10673,14.55946 -6.760039,1.59799 -13.647539,-2.82887 -15.226434,-9.54581 -1.659851,-7.06135 2.966737,-14.25224 9.984884,-15.89341 7.36265,-1.72172 14.85696,3.1046 16.56038,10.42397 1.78362,7.66394 -3.24246,15.46169 -10.86304,17.22735 -7.965243,1.84552 -16.066441,-3.38032 -17.894329,-11.30212 -1.907432,-8.26653 3.51818,-16.6712 11.741209,-18.5613 8.56781,-1.96936 17.27596,3.65603 19.22827,12.18028 2.03129,8.86911 -3.79389,17.88074 -12.61937,19.89525 -9.170384,2.09324 -18.485516,-3.93174 -20.562215,-13.05845 -2.155191,-9.47167 4.06959,-19.09031 13.497525,-21.22919 9.77295,-2.21715 19.69511,4.20744 21.89616,13.93661 2.27912,10.07422 -4.34528,20.29991 -14.37568,22.56313 -10.3755,2.34109 -20.904722,-4.48313 -23.23011,-14.81476 -2.403071,-10.67677 4.620977,-21.50954 15.253843,-23.89708 10.978047,-2.46506 22.114357,4.75882 24.564057,15.69292 2.52704,11.27932 -4.89667,22.71918 -16.132,25.23103 -11.580593,2.58903 -23.324011,-5.03451 -25.898006,-16.57108 -2.651032,-11.88186 5.172349,-23.92884 17.010163,-26.56498 12.183123,-2.71303 24.533673,5.31019 27.231943,17.44924 2.77504,12.4844 -5.44803,25.13851 -17.88832,27.89892 -12.785659,2.83705 -25.743351,-5.58587 -28.565891,-18.3274 -2.899054,-13.08693 5.72371,-26.3482 18.766481,-29.23287 13.38819,-2.96106 26.95304,5.86155 29.89984,19.20557 3.02308,13.68945 -5.99939,27.55789 -19.64464,30.56681 -13.990724,3.0851 -28.162746,-6.13723 -31.233787,-20.08372 -3.147119,-14.29199 6.275064,-28.7676 20.522801,-31.90076 14.593246,-3.20914 29.372456,6.4129 32.567736,20.96188 3.27116,14.89451 -6.55074,29.97731 -21.40096,33.2347 -15.195779,3.3332 -30.582175,-6.68857 -33.901682,-21.84004 -3.395219,-15.49703 6.82641,-31.18703 22.279119,-34.56865 15.798303,-3.45724 31.791893,6.96425 35.235623,22.7182 3.51928,16.09956 -7.10208,32.39676 -23.15728,35.9026 -16.400818,3.58131 -33.001621,-7.23992 -36.569568,-23.59636 -3.643344,-16.70208 7.377752,-33.60649 24.035438,-37.23654 17.00334,-3.70538 34.21136,7.51559 37.90352,24.47452 3.76741,17.3046 -7.65342,34.81622 -24.9136,38.57049 -17.605861,3.82945 -35.421098,-7.79126 -39.237463,-25.35268 -3.891491,-17.90712 7.92909,-36.02597 25.791757,-39.90444 18.208376,-3.95353 36.630836,8.06693 40.571406,26.23084 2.32979,10.73909 -0.71626,22.19284 -8.03223,30.38527"
       id="path14"
       style="fill:#ffff00;fill-rule:evenodd;stroke:#000000;stroke-width:0.26458332" />
    <path
       id="path18"
       d="m 88.446426,117.83928 c 0,-2.88778 0.305578,-4.14975 -0.755951,-6.80357 -0.132348,-0.33087 -0.558279,-0.45944 -0.755952,-0.75595 -1.321062,-1.98159 -0.282556,-1.32106 -1.511906,-3.77976 -0.159369,-0.31874 -0.596582,-0.43722 -0.755951,-0.75595 -0.302382,-0.60477 0.302381,-1.6631 0,-2.26786 -0.15937,-0.31874 -0.596583,-0.43722 -0.755952,-0.75595 -0.112691,-0.22538 0.178178,-0.57778 0,-0.75596 -0.178181,-0.17818 -0.577773,0.17818 -0.755954,0 -0.004,-0.004 0.0063,-2.242582 0,-2.267853 -0.136658,-0.546631 -0.577771,-0.977365 -0.755952,-1.511905 -0.07968,-0.239051 0,-0.503968 0,-0.755952 0,-0.755952 0.148254,-1.526585 0,-2.267857 -0.110503,-0.552511 -0.645448,-0.959393 -0.755952,-1.511904 -0.148253,-0.741272 0,-1.511906 0,-2.267857 0,-0.251984 0.112692,-0.530572 0,-0.755952 -0.159369,-0.318738 -0.596585,-0.437216 -0.755951,-0.755954 -0.112691,-0.22538 0,-0.503968 0,-0.755952 0,-1.007935 0.318735,-2.067597 0,-3.023809 -0.07968,-0.239053 -0.503971,0 -0.755954,0 -0.251984,-0.503968 -0.645449,-0.959392 -0.755952,-1.511906 -0.354661,-1.773303 0.35514,-5.027874 0,-6.80357 -0.110503,-0.552513 -0.577773,-0.977365 -0.755952,-1.511905 -0.239053,-0.717159 0.183346,-1.534475 0,-2.267858 -0.273317,-1.093261 -1.155546,-1.954731 -1.511905,-3.023809 -0.07742,-0.232243 -0.02088,-4.452231 0,-4.535715 0.305106,-1.220428 0.743463,-1.499415 1.511905,-2.267855 0.251984,-0.251986 0.596583,-0.437216 0.755952,-0.755954 0.112691,-0.22538 -0.178181,-0.577773 0,-0.755952 0.178181,-0.178181 0.577773,0.178179 0.755952,0 0.398422,-0.398423 0.357531,-1.113483 0.755954,-1.511906 0.178178,-0.178178 0.503968,0 0.755951,0 0.503968,0 1.061141,0.225383 1.511904,0 0.225382,-0.112688 -0.112689,-0.530569 0,-0.755951 0.159369,-0.318738 0.437216,-0.596583 0.755954,-0.755952 0.604761,-0.302382 1.663094,0.302382 2.267857,0 2.507179,-2.507178 -0.712718,0.35636 1.511904,-0.755951 0.637476,-0.318739 0.874429,-1.193168 1.511906,-1.511906 1.511903,-0.755952 0,1.511906 2.267857,0 0.468821,-0.312547 0.357529,-1.113483 0.755952,-1.511906 0.178178,-0.178179 0.530571,0.112691 0.755951,0 0.318739,-0.159367 0.437216,-0.596583 0.755952,-0.755952 0.479515,-0.239757 3.288678,0.245541 3.779763,0 0.637474,-0.318738 0.87443,-1.193167 1.511904,-1.511903 0.225382,-0.112691 0.50397,0 0.755954,0 0.503966,0 1.061136,0.22538 1.511906,0 0.22538,-0.112691 -0.22538,-0.643263 0,-0.755954 0.90152,-0.450763 2.04596,0.244461 3.02381,0 5.0919,-1.272974 0.0117,-0.01167 1.5119,-1.511904 0.17818,-0.178181 0.50397,0 0.75595,0 0.67561,0 3.53886,0.120449 3.77977,0 0.31873,-0.159369 0.41788,-0.643262 0.75595,-0.755954 0.43003,-0.143343 3.06778,0 3.77976,0 3.02381,0 6.04762,0 9.07143,0 2.26786,0 4.53571,0 6.80357,0 0.25199,0 0.57777,-0.178178 0.75595,0 2.95028,2.950282 -0.17498,0.405985 0.75595,2.267858 0.0724,0.144706 2.87911,2.951459 3.02381,3.023809 0.29973,0.149865 2.11332,-0.154543 2.26786,0 0.92074,0.920739 0.35411,1.688957 1.51191,2.267857 1.04273,0.521364 0.67617,-0.915498 1.5119,0.755955 0.22538,0.450762 -0.35636,1.155543 0,1.511903 0.17818,0.178181 0.57777,-0.178179 0.75595,0 2.95028,2.950281 -0.17498,0.405984 0.75596,2.267857 0.15937,0.318739 0.64326,0.417881 0.75595,0.755952 0.15937,0.478107 -0.12223,1.022985 0,1.511906 0.13666,0.546629 0.57777,0.977365 0.75595,1.511903 0.14217,0.426508 0,1.771116 0,2.267858 0,1.511905 0,3.023809 0,4.535714 0,0.251984 0,0.503968 0,0.755952 0,0.251984 -0.11269,0.530572 0,0.755954 0.31874,0.637474 1.19317,0.87443 1.51191,1.511904 0.35636,0.712718 0.46001,1.528005 0.75595,2.267857 0.20926,0.523153 0.57777,0.977366 0.75595,1.511906 0.0797,0.239051 -0.17818,0.577771 0,0.755952 0.17818,0.178178 0.61618,-0.209664 0.75595,0 1.417,2.125498 0.35616,2.536761 0.75595,4.535715 1.15438,5.771869 0.75596,-2.179439 0.75596,6.047618 0,1.511903 0,3.023809 0,4.535715 0,0.251984 0,0.503968 0,0.755951 0,0.251984 0.13977,0.546288 0,0.755952 -0.39535,0.593019 -1.11656,0.918887 -1.51191,1.511906 -0.13977,0.209664 0.17818,0.57777 0,0.755951 -0.39842,0.398423 -1.11348,0.357533 -1.5119,0.755953 -0.17818,0.17818 0.11269,0.53057 0,0.75595 -0.15937,0.31874 -0.43722,0.59659 -0.75595,0.75595 -0.22539,0.1127 -0.64327,-0.22538 -0.75596,0 -0.22538,0.45077 0.22538,1.06115 0,1.51191 -0.31873,0.63747 -1.08427,0.94173 -1.5119,1.5119 -0.67615,0.90153 -0.71506,2.22697 -1.51191,3.02381 -0.39842,0.39843 -1.19935,0.28713 -1.5119,0.75595 -0.27955,0.41933 0,1.00794 0,1.51191 -0.75595,1.00794 -1.48079,2.03998 -2.26786,3.02381 -1.2849,1.60612 -1.47877,-0.0663 -2.26786,1.51191 -0.11269,0.22538 0.1127,0.53056 0,0.75595 -0.15937,0.31874 -0.50396,0.50397 -0.75595,0.75595 -0.50397,0.50397 -1.11656,0.91889 -1.5119,1.5119 -0.13978,0.20967 0.17818,0.57778 0,0.75596 -0.39842,0.39842 -1.04309,0.4434 -1.51191,0.75595 -0.68815,0.45877 -1.59783,1.93284 -2.26785,2.26786 -0.22539,0.11269 -0.75596,0.25198 -0.75596,0 0,-0.25199 0.75596,-0.25199 0.75596,0 0,0.56345 -0.50397,1.00793 -0.75596,1.5119"
       style="fill:#ff00ff;stroke:#000000;stroke-width:0.26458332px;stroke-linecap:butt;stroke-linejoin:miter;stroke-opacity:1" />
    <path
       id="path20"
       d="m 128.5119,123.13095 c 7.90365,-1.75636 4.72566,-0.47295 9.82738,-3.02381 1.28639,-0.64319 2.2051,-0.90334 3.02381,-2.26786 0.40998,-0.68328 0.25817,-1.64562 0.75596,-2.26785 0.56756,-0.70945 1.62542,-0.86947 2.26785,-1.51191 0.64244,-0.64243 0.80246,-1.70029 1.51191,-2.26785 0.62223,-0.49779 1.55514,-0.3996 2.26785,-0.75596 1.15781,-0.5789 0.59117,-1.34712 1.51191,-2.26786 0.39842,-0.39842 1.17383,-0.30518 1.5119,-0.75595 0.47811,-0.63747 0.1925,-1.7044 0.75596,-2.26785 0.35635,-0.35636 1.09257,0.27955 1.5119,0 1.51461,-1.00974 -0.0375,-2.2491 1.51191,-3.02381 0.22538,-0.11269 0.53057,0.11269 0.75595,0 0.31874,-0.15937 0.45944,-0.55828 0.75595,-0.75596 0.93764,-0.62509 2.08617,-0.8868 3.02381,-1.5119 0.29651,-0.19767 0.41788,-0.643261 0.75595,-0.755953 0.47811,-0.159369 1.0338,0.15937 1.51191,0 0.33807,-0.112691 0.45944,-0.558278 0.75595,-0.755951 0.46882,-0.31255 1.00794,-0.503971 1.5119,-0.755954 0.50397,-0.251984 0.97737,-0.577771 1.51191,-0.755952 0.23905,-0.07968 0.57777,0.178181 0.75595,0 0.17818,-0.178178 -0.17818,-0.577773 0,-0.755952 0.17818,-0.178181 0.50397,0 0.75595,0 0.50397,-0.251983 1.11349,-0.357531 1.51191,-0.755951 0.17818,-0.178181 -0.17818,-0.577773 0,-0.755954 0.17818,-0.178179 0.50397,0 0.75595,0 0.75595,0 1.51191,0 2.26786,0 2.26786,0 4.53571,0 6.80357,0 0.522,0 2.79397,-0.114917 3.02381,0 0.1447,0.07235 2.95146,2.879105 3.02381,3.023809 0.11269,0.225382 -0.11269,0.530571 0,0.755954 2.50718,2.507174 -0.35636,-0.712719 0.75595,1.511904 0.15937,0.31874 0.64326,0.41788 0.75595,0.75595 0.15937,0.47811 -0.22538,1.06114 0,1.51191 0.11269,0.22538 0.64327,-0.22538 0.75596,0 0.22538,0.45076 -0.15937,1.0338 0,1.5119 0.11269,0.33807 0.64326,0.41788 0.75595,0.75595 0.001,0.003 -8e-4,2.26714 0,2.26786 0.17818,0.17818 0.57777,-0.17818 0.75595,0 0.0484,0.0484 1.41803,2.883 1.51191,3.02381 0.19767,0.29651 0.59658,0.43721 0.75595,0.75595 0.11269,0.22538 -0.17818,0.57778 0,0.75596 0.39842,0.39842 1.19935,0.28713 1.5119,0.75595 0.27955,0.41933 -0.15937,1.0338 0,1.5119 0.11269,0.33808 0.66952,0.41024 0.75596,0.75596 0.36669,1.46676 -0.29652,3.05317 0,4.53571 0.1105,0.55251 0.57777,0.97736 0.75595,1.5119 0.22678,0.68036 -0.22679,1.5875 0,2.26786 0.11269,0.33807 0.64326,0.41788 0.75595,0.75595 0.13891,0.41674 0,3.89418 0,4.53572 0,0.25198 -0.17818,0.57777 0,0.75595 0.17818,0.17818 0.57777,-0.17818 0.75595,0 0.17818,0.17818 0,0.50397 0,0.75595 0,1.00794 0,2.01587 0,3.02381 0,4.53572 0,9.07143 0,13.60715 0,2.26785 0,4.53571 0,6.80357 0,1.25992 0.20713,2.53698 0,3.77976 -0.27808,1.66847 -1.57937,3.9147 -2.26785,5.29167 -0.25199,0.50396 -0.44341,1.04308 -0.75596,1.5119 -0.19767,0.29651 -0.59658,0.43721 -0.75595,0.75595 -0.11269,0.22538 0,0.50397 0,0.75595 0,0.50397 0.18717,1.04399 0,1.51191 -1.70842,4.27105 -1.9166,0.80939 -3.02381,3.02381 -0.60109,1.20217 1.45676,0.79271 -0.75595,2.26785 -0.41933,0.27956 -1.06114,-0.22538 -1.51191,0 -0.22538,0.1127 0.11269,0.53058 0,0.75596 -0.15937,0.31873 -0.59658,0.43721 -0.75595,0.75595 -0.11269,0.22538 0.17818,0.57777 0,0.75595 -0.17818,0.17818 -0.5169,-0.0797 -0.75595,0 -0.53454,0.17818 -1.11348,0.35753 -1.51191,0.75596 -0.17817,0.17817 0.20159,0.60476 0,0.75595 -0.90152,0.67614 -2.08616,0.88681 -3.02381,1.5119 -0.59301,0.39535 -0.91888,1.11656 -1.5119,1.51191 -0.20966,0.13977 -0.57777,-0.17818 -0.75595,0 -0.17818,0.17817 0.17818,0.57777 0,0.75595 -0.17818,0.17818 -0.50397,0 -0.75595,0 -0.25199,0 -0.50397,0 -0.75596,0 -0.75595,0 -1.5119,0 -2.26785,0 -2.26786,0 -4.53572,0 -6.80358,0 -3.02081,0 -7.01764,0.36794 -9.82738,-0.75595 -2.07407,-0.82963 -5.19536,-4.43941 -6.80357,-6.04762 -0.75595,-0.75596 -1.5119,-1.51191 -2.26786,-2.26786 -0.50396,-0.50397 -1.19316,-0.87443 -1.5119,-1.51191 -0.22538,-0.45076 0.15937,-1.03379 0,-1.5119 -0.11269,-0.33807 -0.50397,-0.50397 -0.75595,-0.75595 -0.25199,-0.25199 -0.50397,-0.50397 -0.75595,-0.75595 -0.50397,-0.50397 -1.00794,-1.00794 -1.51191,-1.51191 -0.25198,-0.25198 -0.43721,-0.59658 -0.75595,-0.75595 -1.86187,-0.93094 0.68242,2.19433 -2.26786,-0.75595 -0.17818,-0.17818 0.11269,-0.53057 0,-0.75595 -1.57305,-3.1461 0.0522,0.80813 -1.5119,-0.75596 -0.17818,-0.17818 -0.25199,-0.75595 0,-0.75595 0.25198,0 0.11269,0.98133 0,0.75595 -0.35636,-0.71272 -0.56269,-1.4948 -0.75596,-2.26785 -0.17376,-0.69506 0.38138,-1.98863 0,-1.51191 -3.14826,3.93533 -6.04761,8.06349 -9.07142,12.09524"
       style="fill:#ff00ff;stroke:#000000;stroke-width:0.26458332px;stroke-linecap:butt;stroke-linejoin:miter;stroke-opacity:1" />
    <path
       id="path22"
       d="m 88.446424,117.83928 c -2.267855,-2.26786 -4.419651,-4.65804 -6.803568,-6.80357 -0.187298,-0.16857 -0.530571,0.11269 -0.755951,0 -0.318738,-0.15937 -0.503971,-0.50397 -0.755954,-0.75595 -0.503968,-0.50397 -1.116558,-0.91889 -1.511904,-1.51191 -0.139776,-0.20966 0.139774,-0.54628 0,-0.75595 -0.395345,-0.59302 -1.007938,-1.00793 -1.511905,-1.5119 -0.251984,-0.25199 -0.643261,-0.41788 -0.755952,-0.75595 -0.159369,-0.47811 0.159369,-1.0338 0,-1.51191 -0.112691,-0.33807 -0.596585,-0.43721 -0.755952,-0.75595 -0.356359,-0.71272 -0.345979,-1.58457 -0.755954,-2.26786 -0.366691,-0.61115 -1.193168,-0.87443 -1.511903,-1.511903 -1.261907,-2.523812 -0.259226,-3.54226 -1.511906,-6.047618 -0.159369,-0.318738 -0.596583,-0.437216 -0.755952,-0.755954 -0.112691,-0.22538 0,-0.503968 0,-0.755952 -0.503967,-0.755951 -0.966779,-1.541023 -1.511906,-2.267857 -0.213815,-0.285086 -0.596582,-0.437213 -0.755951,-0.755952 -0.225383,-0.450762 0.356359,-1.155546 0,-1.511906 -0.398423,-0.39842 -1.043083,-0.443404 -1.511906,-0.755951 -0.296508,-0.197673 -0.503968,-0.503968 -0.755952,-0.755952 -0.251984,-0.251984 -0.596582,-0.437216 -0.755951,-0.755951 -0.112692,-0.225383 0.112691,-0.530572 0,-0.755955 -0.835726,-1.671452 -0.469178,-0.234587 -1.511906,-0.755951 -0.318736,-0.159369 -0.503968,-0.503968 -0.755952,-0.755952 -0.503968,-0.50397 -0.918887,-1.11656 -1.511906,-1.511906 -0.209661,-0.139777 -0.503967,0 -0.755951,0 -0.503968,-0.251984 -1.113483,-0.357531 -1.511904,-0.755951 -0.178181,-0.178181 0.178179,-0.577774 0,-0.755952 -0.178181,-0.178181 -0.577773,0.178178 -0.755954,0 -0.178178,-0.178181 0.225383,-0.643263 0,-0.755954 -0.450762,-0.22538 -1.06114,0.225382 -1.511903,0 -0.225383,-0.112692 0.178178,-0.577774 0,-0.755952 -0.178181,-0.178181 -0.530572,0.112691 -0.755954,0 -0.318736,-0.159369 -0.437214,-0.596582 -0.755952,-0.755952 -0.450763,-0.225382 -1.033798,0.15937 -1.511903,0 -0.53454,-0.178181 -0.977366,-0.577773 -1.511906,-0.755954 -0.478107,-0.159366 -1.007935,0 -1.511906,0 -1.259919,0 -2.519841,0 -3.779761,0 -1.909318,0 -4.342354,-0.380889 -6.047618,0.755954 -0.209664,0.139775 0.178179,0.577771 0,0.755952 -0.377976,0.377976 -1.889881,-0.377976 -2.267857,0 -0.178181,0.178178 0,0.503968 0,0.755952 -0.251984,0.503967 -0.357532,1.113483 -0.755952,1.511906 -3.50955,1.754774 -0.128333,-0.499288 -1.511906,2.267857 -0.225382,0.450763 -1.155546,-0.356359 -1.511906,0 -0.178178,0.178178 0.112692,0.530569 0,0.755952 -0.159366,0.318738 -0.596582,0.437213 -0.755951,0.755951 -0.112692,0.225383 0.07968,0.516901 0,0.755955 -0.178179,0.534537 -0.54669,0.98875 -0.755952,1.511903 -0.295942,0.739852 -0.313944,1.604843 -0.755952,2.267857 -0.139776,0.209664 -0.577773,-0.178181 -0.755954,0 -0.178178,0.178179 0.178181,0.577774 0,0.755952 -0.178178,0.178181 -0.64326,-0.22538 -0.755951,0 -2.212396,4.424794 0.424439,1.631201 -1.511906,4.535715 -0.395343,0.593018 -1.193165,0.874429 -1.511904,1.511906 -0.225382,0.450762 0.35636,1.155544 0,1.511903 -0.920736,0.920737 -1.688957,0.354105 -2.267857,1.511906 -0.112691,0.22538 0.06112,0.51149 0,0.755951 -0.193263,0.773053 -0.503968,1.511903 -0.755952,2.267853 -0.251985,0.75596 -0.460012,1.52801 -0.755953,2.26786 -0.209261,0.52316 -0.443404,1.04309 -0.755952,1.51191 -0.197673,0.29651 -0.669523,0.41023 -0.755952,0.75595 -0.183346,0.73338 0.148254,1.52658 0,2.26785 -0.110503,0.55252 -0.594046,0.97222 -0.755953,1.51191 -0.597084,1.99028 -0.91482,4.05734 -1.511905,6.04762 -0.161907,0.53969 -0.64545,0.95939 -0.755952,1.5119 -0.148255,0.74128 0.280754,1.56598 0,2.26786 -0.264697,0.66174 -1.116559,0.91889 -1.511905,1.51191 -0.139775,0.20966 0.17818,0.57777 0,0.75595 -0.17818,0.17818 -0.643261,-0.22538 -0.755952,0 -0.124986,0.24997 0,3.19797 0,3.77976 0,1.25992 0,2.51984 0,3.77976 0,0.49674 -0.142169,1.84135 0,2.26786 0.17818,0.53454 0.35753,1.11348 0.755952,1.5119 0.17818,0.17818 0.577773,-0.17818 0.755953,0 0.920737,0.92074 0.354105,1.68896 1.511904,2.26786 0.450763,0.22538 1.061142,-0.22538 1.511905,0 0.318738,0.15937 0.437215,0.59658 0.755953,0.75595 0.225381,0.1127 0.503968,0 0.755952,0 1.25992,0 2.519841,0 3.779763,0 0.251984,0 0.503968,0 0.755951,0 0.251984,0 0.530572,-0.11269 0.755952,0 0.318738,0.15937 0.437216,0.59659 0.755952,0.75596 0.450765,0.22538 1.061143,-0.22538 1.511906,0 0.318738,0.15936 0.437216,0.59658 0.755951,0.75595 0.299731,0.14986 2.113315,-0.15455 2.267858,0 0.178181,0.17818 -0.178179,0.57777 0,0.75595 0.178181,0.17818 0.530571,-0.11269 0.755951,0 0.318739,0.15937 0.437216,0.59658 0.755955,0.75595 0.22538,0.11269 0.503967,0 0.755951,0 1.007936,0 2.067597,-0.31874 3.023809,0 0.239054,0.0797 0,0.50397 0,0.75595 0.755952,0.25199 1.494806,0.56269 2.267858,0.75596 0.768477,0.19212 4.091884,-0.22192 4.535715,0 0.318735,0.15937 0.459443,0.55828 0.755951,0.75595 0.468821,0.31255 1.007936,0.50397 1.511906,0.75595 0.503968,0.25199 0.977366,0.57778 1.511904,0.75596 1.13393,0.37797 0.755951,-0.75596 2.267857,0 0.225383,0.11268 0,0.50396 0,0.75595 0.503968,0 1.007935,0 1.511906,0 0.251984,0 0.503968,0 0.755951,0 0.251984,0 0.530572,-0.11269 0.755952,0 0.318738,0.15937 0.41788,0.64326 0.755952,0.75595 0.478107,0.15937 1.033798,-0.15937 1.511906,0 0.338071,0.11269 0.437216,0.59658 0.755951,0.75595 0.225383,0.11269 0.503968,0 0.755954,0 0.503968,0 1.007936,0 1.511904,0 1.259922,0 2.519841,0 3.779763,0 1.511903,0 3.023809,0 4.535712,0 0.251984,0 0.755955,-0.25198 0.755955,0 0,0.25198 -1.007938,0 -0.755955,0 0.503968,0 1.007939,0 1.511906,0 0.251984,0 0.577774,0.17818 0.755952,0 0.178181,-0.17818 0.251984,-0.75595 0,-0.75595 -0.356359,0 -1.112311,0.75595 -0.755952,0.75595 0.563454,0 1.113483,-0.35753 1.511904,-0.75595 0.178181,-0.17818 -0.251984,-0.75595 0,-0.75595 0.251986,0 0.251986,0.75595 0,0.75595 -0.35636,0 -0.503968,-0.50397 -0.755952,-0.75595"
       style="fill:#ff00ff;stroke:#000000;stroke-width:0.26458332px;stroke-linecap:butt;stroke-linejoin:miter;stroke-opacity:1" />
    <path
       id="path24"
       d="m 129.26786,170 c 2.77182,-2.51984 5.34629,-5.27554 8.31547,-7.55952 0.39946,-0.30728 1.00794,0 1.51191,0 0.50397,0 1.00793,0 1.5119,0 0.47405,0 2.93043,-0.0934 3.02381,0 0.17818,0.17817 -0.17818,0.57777 0,0.75595 0.17818,0.17818 0.53057,-0.11269 0.75595,0 0.31874,0.15937 0.50397,0.50396 0.75596,0.75595 0.50396,0 1.03379,-0.15937 1.5119,0 0.33807,0.11269 0.50397,0.50397 0.75595,0.75595 0.80557,0.80557 2.05866,2.29995 3.02381,3.02381 0.72684,0.54513 1.54103,0.96678 2.26786,1.5119 0.28509,0.21382 0.50397,0.50397 0.75595,0.75596 1.70788,1.70787 -0.22538,-0.45077 1.51191,3.02381 0.15936,0.31873 0.50397,0.50397 0.75595,0.75595 0.86492,0.86492 1.05424,0.89488 1.5119,2.26786 0.0797,0.23905 0,0.50397 0,0.75595 0.25199,0.25198 0.59659,0.43722 0.75596,0.75595 0.11269,0.22538 -0.0611,0.51149 0,0.75595 0.19326,0.77306 0.56269,1.49481 0.75595,2.26786 0.0611,0.24446 -0.11269,0.53057 0,0.75595 0.15937,0.31874 0.59658,0.43722 0.75595,0.75596 0.20505,0.41009 -0.20684,2.81696 0,3.0238 0.17818,0.17819 0.57777,-0.17817 0.75595,0 0.17818,0.17819 -0.11269,0.53058 0,0.75596 0.15937,0.31873 0.64326,0.41788 0.75596,0.75595 0.15936,0.47811 -0.12223,1.02298 0,1.5119 0.13665,0.54664 0.57777,0.97737 0.75595,1.51191 0.15937,0.47811 -0.15937,1.0338 0,1.51191 1.82522,5.47567 -0.21795,-1.19185 1.5119,2.26785 0.22538,0.45076 -0.22538,1.06114 0,1.51191 0.15937,0.31873 0.66953,0.41023 0.75595,0.75595 0.18335,0.73338 0,1.5119 0,2.26786 0,2.01587 0,4.03174 0,6.04761 0,1.76389 0,3.52778 0,5.29167 0,0.75595 0,1.51191 0,2.26786 0,0.50397 0.18717,1.04398 0,1.5119 -3.58526,8.96316 0.44688,-3.1616 -3.0238,3.77976 -0.22539,0.45077 0.22538,1.06115 0,1.51191 -0.1127,0.22538 -0.57778,-0.17818 -0.75596,0 -0.35636,0.35636 0.27955,1.09258 0,1.5119 -0.39534,0.59302 -1.14521,0.90076 -1.5119,1.51191 -0.40997,0.68329 -0.56269,1.49481 -0.75595,2.26786 -0.0611,0.24446 0.17817,0.57777 0,0.75595 -0.17818,0.17818 -0.50397,0 -0.75596,0 -0.25198,0.25198 -0.53333,0.47768 -0.75595,0.75595 -0.78707,0.98383 -1.37696,2.13291 -2.26786,3.02381 -0.64243,0.64244 -1.54102,0.96678 -2.26785,1.51191 -0.28509,0.21381 -0.43722,0.59658 -0.75596,0.75595 -0.22538,0.11269 -0.57777,-0.17818 -0.75595,0 -0.17818,0.17818 0.22538,0.64326 0,0.75595 -0.92927,0.46464 -2.051,0.39115 -3.02381,0.75595 -1.05515,0.39569 -1.95473,1.15555 -3.02381,1.51191 -0.4781,0.15936 -1.00793,0 -1.5119,0 -0.25199,0 -0.53057,-0.11269 -0.75595,0 -0.63748,0.31873 -0.87443,1.19316 -1.51191,1.5119 -0.22538,0.11269 -0.50397,0 -0.75595,0 -0.50397,0 -1.02299,-0.12223 -1.51191,0 -0.54663,0.13666 -0.97736,0.57777 -1.5119,0.75595 -0.47811,0.15937 -1.00794,0 -1.51191,0 -1.00793,0 -2.01587,0 -3.0238,0 -1.76389,0 -3.52778,0 -5.29167,0 -0.75595,0 -1.53448,0.18335 -2.26786,0 -0.54663,-0.13665 -0.97736,-0.57777 -1.5119,-0.75595 -0.51997,-0.17332 -1.82183,0.22302 -2.26786,0 -3.14609,-1.57304 0.80814,0.0522 -0.75595,-1.5119 -0.35636,-0.35636 -1.15555,0.35636 -1.51191,0 -0.17818,-0.17818 0.17818,-0.57777 0,-0.75596 -0.20287,-0.20287 -2.4914,0.17747 -3.02381,0 -0.53454,-0.17817 -0.97736,-0.57777 -1.5119,-0.75595 -0.23906,-0.0797 -0.50397,0 -0.75595,0 -0.50397,0 -1.00794,0 -1.51191,0 -0.75595,0 -1.53447,0.18335 -2.26786,0 -0.34572,-0.0864 -0.41023,-0.66952 -0.75595,-0.75595 -1.46676,-0.36669 -3.04438,0.24856 -4.53571,0 -0.786,-0.131 -1.49481,-0.56269 -2.26786,-0.75595 -0.24446,-0.0611 -0.54629,0.13977 -0.75595,0 -2.19306,-1.46204 -1.719848,-3.33572 -3.023812,-5.29167 -0.197673,-0.29651 -0.503968,-0.50397 -0.755952,-0.75595 -0.503967,-0.50397 -1.007938,-1.00794 -1.511906,-1.5119 -0.251983,-0.25199 -0.459443,-0.55829 -0.755951,-0.75596 -0.468821,-0.31255 -1.113483,-0.35753 -1.511906,-0.75595 -1.564092,-1.56409 2.390143,0.0611 -0.755952,-1.51191 -0.22538,-0.11269 -0.577773,0.17818 -0.755951,0 -0.35636,-0.35636 0.22538,-1.06114 0,-1.5119 -0.406313,-0.81263 -1.044464,-1.48879 -1.511906,-2.26786 -0.289894,-0.48316 -0.443405,-1.04308 -0.755952,-1.5119 -0.197673,-0.29651 -0.596582,-0.43722 -0.755951,-0.75595 -0.171797,-0.3436 0.06598,-1.80602 0,-2.26786 -0.79738,-5.58165 -0.755955,-2.87187 -0.755955,-5.29167 0,-0.53582 -0.09772,-4.34026 0,-4.53571 0.159369,-0.31874 0.596585,-0.43722 0.755955,-0.75596 0.22538,-0.45076 -0.35636,-1.15554 0,-1.5119 0.178178,-0.17818 0.530569,0.11269 0.755951,0 0.318738,-0.15937 0.437216,-0.59658 0.755952,-0.75595 0.225382,-0.11269 0.643263,0.22538 0.755954,0 0.22538,-0.45077 -0.09884,-1.01773 0,-1.51191 0.156274,-0.78137 0.46001,-1.528 0.755952,-2.26785 0.209261,-0.52316 0.577773,-0.97737 0.755951,-1.51191 0.07968,-0.23905 -0.112691,-0.53057 0,-0.75595 0.159369,-0.31874 0.596585,-0.43721 0.755952,-0.75595 0.225383,-0.45077 -0.159367,-1.0338 0,-1.51191 0.178181,-0.53454 0.619297,-0.96527 0.755954,-1.5119 0.0063,-0.0253 -0.004,-2.26385 0,-2.26786 0.178179,-0.17818 0.577771,0.17818 0.755952,0 0.178181,-0.17818 0,-0.50397 0,-0.75595 0,-0.25199 0,-0.50397 0,-0.75596 0,-0.25198 -0.251984,-0.75595 0,-0.75595 0.251984,0 0,1.00794 0,0.75595 0,-2.01587 0,-4.03174 0,-6.04761"
       style="fill:#ff00ff;stroke:#000000;stroke-width:0.26458332px;stroke-linecap:butt;stroke-linejoin:miter;stroke-opacity:1" />
    <path
       id="path26"
       d="m 71.815475,144.29762 c -1.76389,0.75595 -3.446449,1.74065 -5.291667,2.26786 -0.242289,0.0692 0.178181,-0.57778 0,-0.75596 -0.154543,-0.15454 -1.968127,0.14987 -2.267857,0 -1.868263,-0.93413 0.26094,-0.75595 -1.511903,-0.75595 -2.267858,0 -4.535715,0 -6.803573,0 -0.627348,0 -2.631138,0.15707 -3.023809,0 -1.046308,-0.41852 -1.977501,-1.09338 -3.023809,-1.5119 -0.392502,-0.157 -3.848301,0 -4.535715,0 -3.527777,0 -7.055556,0 -10.583333,0 -2.015874,0 -4.031745,0 -6.047619,0 -0.340449,0 -2.037794,-0.11504 -2.267857,0 -0.637475,0.31873 -0.87443,1.19316 -1.511905,1.5119 -0.225381,0.11269 -0.516899,-0.0797 -0.755952,0 -0.534539,0.17818 -0.977366,0.57777 -1.511905,0.75595 -0.478106,0.15937 -1.061142,-0.22538 -1.511905,0 -1.157799,0.5789 -0.591167,1.34712 -1.511904,2.26786 -1.836059,1.83606 -1.110058,-0.2248 -2.267857,1.5119 -0.312548,0.46882 -0.443405,1.04309 -0.755953,1.51191 -0.197672,0.29651 -0.596583,0.43721 -0.755952,0.75595 -0.112691,0.22538 0,0.50397 0,0.75595 -0.251984,0.75596 -0.399593,1.55514 -0.755953,2.26786 -0.159368,0.31874 -0.596583,0.43721 -0.755952,0.75595 -0.112691,0.22539 0.07969,0.5169 0,0.75595 -0.17818,0.53454 -0.577773,0.97737 -0.755952,1.51191 -0.226786,0.68036 0.226785,1.5875 0,2.26786 -0.17818,0.53454 -0.577773,0.97736 -0.755953,1.5119 -0.142169,0.42651 0,1.77112 0,2.26786 0,1.76389 0,3.52778 0,5.29166 0,5.54366 0,11.08731 0,16.63096 0,0.8281 -0.07633,2.98564 0,3.02381 0.450763,0.22538 1.061142,-0.22538 1.511905,0 0.225382,0.11269 -0.112691,0.53057 0,0.75595 0.159369,0.31874 0.503968,0.50397 0.755952,0.75595 0.251985,0.25199 0.437215,0.59659 0.755953,0.75596 0.225381,0.11268 0.530571,-0.1127 0.755952,0 3.146093,1.57304 -0.80814,-0.0522 0.755953,1.5119 0.356359,0.35636 1.155545,-0.35636 1.511904,0 0.35636,0.35636 -0.356359,1.15555 0,1.5119 0.17818,0.17818 0.521991,-0.0936 0.755953,0 9.375136,4.68757 -0.74191,0.1925 4.535714,1.51191 1.368229,-0.45564 1.405939,1.2246 2.267857,1.5119 0.478107,0.15937 1.007935,0 1.511906,0 0.503968,0.50397 0.918885,1.11656 1.511903,1.51191 0.419328,0.27955 1.061143,-0.22538 1.511906,0 0.318736,0.15937 0.437213,0.59658 0.755952,0.75595 0.450762,0.22538 1.155546,-0.35636 1.511905,0 0.178179,0.17818 0,0.50397 0,0.75595 0.251984,0.50397 0.29745,1.18441 0.755952,1.51191 11.906046,8.50432 0.862745,-2.10767 5.291667,4.53571 0.139774,0.20966 0.516898,-0.0797 0.755951,0 0.534541,0.17818 1.061144,0.41788 1.511906,0.75596 0.570175,0.42763 1.116558,0.91888 1.511903,1.5119 0.139777,0.20966 -0.23396,0.66237 0,0.75595 1.192975,0.47719 2.512373,0.54472 3.779764,0.75595 0.248555,0.0414 0.530569,-0.11269 0.755951,0 0.318739,0.15937 0.437216,0.59659 0.755952,0.75596 0.712719,0.35636 1.511906,0.50396 2.267858,0.75595 0.755951,0.25198 1.481854,0.62495 2.267857,0.75595 1.182804,0.19714 3.206837,0 4.535715,0 0.755952,0 1.511903,0 2.267857,0 0.755952,0 1.519503,0.10691 2.267855,0 0.320749,-0.0458 4.704226,-1.12028 5.291667,-1.5119 0.209664,-0.13978 -0.239051,-0.67627 0,-0.75596 0.717161,-0.23905 1.573027,0.29779 2.267857,0 1.15805,-0.4963 1.99857,-1.53554 3.02381,-2.26785 0.739311,-0.52808 1.558406,-0.94435 2.267857,-1.51191 0.55654,-0.44523 1.007938,-1.00793 1.511906,-1.5119 0.251984,-0.25199 0.437213,-0.59659 0.755952,-0.75596 0.712718,-0.35636 1.630383,-0.27784 2.267857,-0.75595 0.450763,-0.33807 0.503968,-1.00793 0.755952,-1.5119 0.503967,-0.50397 0.918887,-1.11656 1.511905,-1.51191 0.419328,-0.27955 1.061141,0.22538 1.511904,0 0.318738,-0.15937 0.50397,-0.50396 0.755954,-0.75595 0.48414,-0.48414 2.316377,-2.55219 3.023809,-3.02381 0.503968,-0.25198 1.007936,-0.50397 1.511903,-0.75595 0,-0.25199 -0.178178,-0.57778 0,-0.75595 0.35636,-0.35636 1.155547,0.35636 1.511906,0 0.178181,-0.17818 -0.07968,-0.5169 0,-0.75596 0.178181,-0.53454 0.443405,-1.04308 0.755952,-1.5119 0.395346,-0.59302 1.193167,-0.87443 1.511906,-1.5119 0.112691,-0.22539 0,-0.50397 0,-0.75596 0,-0.50397 0,-1.00793 0,-1.5119 0,-2.43338 -0.178181,1.29049 0.755951,-1.51191 0.159369,-0.47811 -0.159369,-1.0338 0,-1.5119 0.112692,-0.33808 0.596585,-0.43722 0.755952,-0.75596 0.915323,-1.83064 0.755954,-2.04991 0.755954,-3.77976 0,-0.50396 -0.159369,-1.03379 0,-1.5119 0.934133,-2.8024 0.755952,0.92147 0.755952,-1.51191 0,-0.25198 0,-1.00793 0,-0.75595 0,0.50397 0,1.00794 0,1.51191"
       style="fill:#ff00ff;stroke:#000000;stroke-width:0.26458332px;stroke-linecap:butt;stroke-linejoin:miter;stroke-opacity:1" />
  </g>
</svg>
